<svg width="136" height="99" viewBox="0 0 136 99" fill="none" xmlns="http://www.w3.org/2000/svg">
<g clip-path="url(#clip0_11_4)">
<path d="M77.5808 55.6993H48.1004L56.7139 47.0176C59.828 48.5983 63.2592 49.441 66.7457 49.4815C70.255 49.4908 73.6987 48.5229 76.6967 46.6844C85.8137 41.1214 90.699 28.2441 89.765 12.2367C89.721 11.4785 89.4024 10.763 88.8696 10.2259C88.3368 9.68887 87.6268 9.36773 86.8746 9.32345C70.9928 8.38207 58.2167 13.3059 52.6935 22.4951C49.0997 28.4804 49.0075 35.7094 52.3629 42.64L46.832 48.2147L42.1389 43.4845C44.4451 38.3514 44.2798 33.0247 41.6047 28.5773C37.4267 21.6079 27.8484 17.8928 15.9794 18.594C15.2285 18.6391 14.52 18.9601 13.988 19.4962C13.4561 20.0324 13.1376 20.7465 13.0929 21.5034C12.3933 33.4624 16.0832 43.1165 23.0017 47.3314C25.3163 48.7559 27.9769 49.5067 30.6889 49.5009C33.1492 49.4762 35.576 48.9229 37.8072 47.8776L42.4849 52.6001L39.41 55.6993H22.233C21.4174 55.6993 20.6353 56.0258 20.0587 56.607C19.482 57.1882 19.1581 57.9765 19.1581 58.7985C19.1581 59.6204 19.482 60.4087 20.0587 60.99C20.6353 61.5712 21.4174 61.8977 22.233 61.8977H25.919L30.9964 84.9365C31.2927 86.317 32.051 87.5528 33.1441 88.4367C34.2373 89.3205 35.5987 89.7985 37.0001 89.7906H62.8175C64.2185 89.7971 65.5792 89.3185 66.6721 88.4349C67.7649 87.5513 68.5236 86.3163 68.8212 84.9365L73.8986 61.8977H77.5808C78.3963 61.8977 79.1784 61.5712 79.755 60.99C80.3317 60.4087 80.6556 59.6204 80.6556 58.7985C80.6556 57.9765 80.3317 57.1882 79.755 56.607C79.1784 56.0258 78.3963 55.6993 77.5808 55.6993Z" fill="#4ECB71"/>
<ellipse cx="40.2087" cy="67.9186" rx="4.73043" ry="4.60465" fill="white"/>
<ellipse cx="61.4957" cy="67.9186" rx="4.73043" ry="4.60465" fill="white"/>
<path d="M41.3914 80.5814L42.6938 81.3272C48.0377 84.3871 54.6658 84.0968 59.7218 80.5814V80.5814" stroke="white"/>
<ellipse cx="96.974" cy="55.2558" rx="4.73043" ry="4.60465" fill="white"/>
<ellipse cx="89.287" cy="61.5872" rx="4.13913" ry="4.02907" fill="white"/>
<ellipse cx="82.7826" cy="67.9186" rx="3.54783" ry="3.45349" fill="white"/>
<ellipse cx="76.2783" cy="73.0989" rx="2.95652" ry="2.87791" fill="white"/>
</g>
<ellipse cx="114.713" cy="40.2907" rx="21.287" ry="14.9651" fill="white"/>
<path d="M104.357 37.2325V43.0225C104.357 43.3359 104.324 43.5992 104.257 43.8125C104.19 44.0325 104.097 44.2092 103.977 44.3425C103.864 44.4825 103.73 44.5825 103.577 44.6425C103.43 44.7025 103.274 44.7325 103.107 44.7325C102.774 44.7325 102.514 44.6359 102.327 44.4425C102.14 44.2559 102.047 44.0259 102.047 43.7525C102.047 43.5792 102.087 43.4225 102.167 43.2825C102.24 43.1425 102.34 43.0125 102.467 42.8925C102.587 42.7792 102.727 42.6759 102.887 42.5825C103.04 42.4959 103.197 42.4192 103.357 42.3525V37.2325H104.357ZM103.177 35.7925C103.177 35.6125 103.24 35.4559 103.367 35.3225C103.494 35.1892 103.65 35.1225 103.837 35.1225C104.017 35.1225 104.174 35.1892 104.307 35.3225C104.44 35.4559 104.507 35.6125 104.507 35.7925C104.507 35.9792 104.44 36.1359 104.307 36.2625C104.174 36.3892 104.017 36.4525 103.837 36.4525C103.65 36.4525 103.494 36.3892 103.367 36.2625C103.24 36.1359 103.177 35.9792 103.177 35.7925ZM102.917 44.2125C103.097 44.2125 103.214 44.1425 103.267 44.0025C103.327 43.8692 103.357 43.6859 103.357 43.4525V42.7525C103.024 42.9059 102.787 43.0559 102.647 43.2025C102.507 43.3559 102.437 43.5259 102.437 43.7125C102.437 43.8659 102.48 43.9859 102.567 44.0725C102.647 44.1659 102.764 44.2125 102.917 44.2125ZM105.151 35.3425C105.151 35.2559 105.171 35.1759 105.211 35.1025C105.251 35.0292 105.301 34.9692 105.361 34.9225C105.428 34.8692 105.498 34.8292 105.571 34.8025C105.651 34.7692 105.728 34.7525 105.801 34.7525C106.054 34.7525 106.234 34.8292 106.341 34.9825C106.454 35.1359 106.511 35.3259 106.511 35.5525C106.511 35.7125 106.484 35.8825 106.431 36.0625C106.384 36.2359 106.318 36.4059 106.231 36.5725C106.151 36.7325 106.054 36.8792 105.941 37.0125C105.834 37.1392 105.718 37.2325 105.591 37.2925C105.531 37.2592 105.491 37.2225 105.471 37.1825C105.458 37.1359 105.451 37.0925 105.451 37.0525C105.451 36.9859 105.461 36.9192 105.481 36.8525C105.508 36.7792 105.534 36.7092 105.561 36.6425C105.588 36.5759 105.611 36.5092 105.631 36.4425C105.658 36.3759 105.671 36.3125 105.671 36.2525C105.671 36.1525 105.658 36.0825 105.631 36.0425C105.604 35.9959 105.571 35.9625 105.531 35.9425C105.498 35.9159 105.458 35.8992 105.411 35.8925C105.364 35.8792 105.321 35.8559 105.281 35.8225C105.248 35.7825 105.218 35.7292 105.191 35.6625C105.164 35.5892 105.151 35.4825 105.151 35.3425ZM110.836 37.2325V40.6325C110.836 40.6992 110.839 40.7825 110.846 40.8825C110.852 40.9825 110.869 41.0825 110.896 41.1825C110.929 41.2759 110.976 41.3592 111.036 41.4325C111.096 41.4992 111.179 41.5325 111.286 41.5325C111.612 41.5325 111.852 41.1692 112.006 40.4425H112.376C112.302 40.8625 112.209 41.1959 112.096 41.4425C111.982 41.6825 111.862 41.8659 111.736 41.9925C111.609 42.1192 111.479 42.1992 111.346 42.2325C111.212 42.2725 111.092 42.2925 110.986 42.2925C110.832 42.2925 110.699 42.2659 110.586 42.2125C110.479 42.1592 110.386 42.0892 110.306 42.0025C110.232 41.9159 110.172 41.8159 110.126 41.7025C110.079 41.5892 110.042 41.4692 110.016 41.3425C109.916 41.6025 109.752 41.8259 109.526 42.0125C109.306 42.1992 109.036 42.2925 108.716 42.2925C108.516 42.2925 108.312 42.2525 108.106 42.1725C107.906 42.0925 107.722 41.9625 107.556 41.7825C107.396 41.5959 107.262 41.3592 107.156 41.0725C107.056 40.7792 107.006 40.4225 107.006 40.0025C107.006 39.6959 107.039 39.3759 107.106 39.0425C107.179 38.7092 107.292 38.4059 107.446 38.1325C107.599 37.8592 107.796 37.6325 108.036 37.4525C108.276 37.2725 108.566 37.1825 108.906 37.1825C108.986 37.1825 109.069 37.1925 109.156 37.2125C109.249 37.2259 109.336 37.2525 109.416 37.2925C109.502 37.3325 109.582 37.3892 109.656 37.4625C109.729 37.5292 109.789 37.6125 109.836 37.7125V37.2325H110.836ZM108.966 41.5325C109.066 41.5325 109.166 41.5059 109.266 41.4525C109.372 41.3925 109.466 41.3159 109.546 41.2225C109.632 41.1225 109.702 41.0059 109.756 40.8725C109.809 40.7392 109.836 40.5959 109.836 40.4425V38.1625C109.789 38.0559 109.716 37.9592 109.616 37.8725C109.522 37.7792 109.399 37.7325 109.246 37.7325C109.032 37.7325 108.849 37.8059 108.696 37.9525C108.542 38.0925 108.419 38.2725 108.326 38.4925C108.232 38.7059 108.162 38.9425 108.116 39.2025C108.076 39.4559 108.056 39.6992 108.056 39.9325C108.056 40.5059 108.132 40.9159 108.286 41.1625C108.446 41.4092 108.672 41.5325 108.966 41.5325ZM111.829 35.7925C111.829 35.6125 111.893 35.4559 112.019 35.3225C112.146 35.1892 112.303 35.1225 112.489 35.1225C112.669 35.1225 112.826 35.1892 112.959 35.3225C113.093 35.4559 113.159 35.6125 113.159 35.7925C113.159 35.9792 113.093 36.1359 112.959 36.2625C112.826 36.3892 112.669 36.4525 112.489 36.4525C112.303 36.4525 112.146 36.3892 112.019 36.2625C111.893 36.1359 111.829 35.9792 111.829 35.7925ZM113.009 37.2325V40.6325C113.009 40.7125 113.009 40.8059 113.009 40.9125C113.016 41.0125 113.033 41.1092 113.059 41.2025C113.093 41.2959 113.136 41.3759 113.189 41.4425C113.249 41.5025 113.336 41.5325 113.449 41.5325C113.503 41.5325 113.566 41.5259 113.639 41.5125C113.719 41.4992 113.779 41.4859 113.819 41.4725C113.826 41.5059 113.829 41.5359 113.829 41.5625C113.836 41.5892 113.839 41.6192 113.839 41.6525C113.839 41.7659 113.813 41.8659 113.759 41.9525C113.713 42.0325 113.649 42.0992 113.569 42.1525C113.489 42.1992 113.399 42.2325 113.299 42.2525C113.199 42.2792 113.099 42.2925 112.999 42.2925C112.799 42.2925 112.636 42.2525 112.509 42.1725C112.383 42.0859 112.279 41.9759 112.199 41.8425C112.126 41.7025 112.076 41.5492 112.049 41.3825C112.023 41.2159 112.009 41.0492 112.009 40.8825V37.2325H113.009ZM120.312 40.4425C120.119 40.7092 119.919 40.9325 119.712 41.1125C119.512 41.2859 119.316 41.4392 119.122 41.5725C119.049 41.7059 118.956 41.8192 118.842 41.9125C118.729 41.9992 118.606 42.0725 118.472 42.1325C118.346 42.1859 118.216 42.2259 118.082 42.2525C117.956 42.2792 117.839 42.2925 117.732 42.2925C117.439 42.2925 117.196 42.2459 117.002 42.1525C116.816 42.0592 116.666 41.9425 116.552 41.8025C116.439 41.6559 116.359 41.4959 116.312 41.3225C116.266 41.1425 116.242 40.9725 116.242 40.8125C116.242 40.6392 116.276 40.4892 116.342 40.3625C116.416 40.2292 116.502 40.1359 116.602 40.0825C116.776 39.5825 116.946 39.0892 117.112 38.6025C117.279 38.1092 117.389 37.6159 117.442 37.1225L118.452 36.9225C118.612 37.5559 118.742 38.0725 118.842 38.4725C118.949 38.8725 119.032 39.2125 119.092 39.4925C119.159 39.7659 119.206 40.0092 119.232 40.2225C119.266 40.4292 119.282 40.6592 119.282 40.9125C119.396 40.8392 119.502 40.7625 119.602 40.6825C119.702 40.5959 119.799 40.5159 119.892 40.4425H120.312ZM118.222 40.8425C118.222 40.6359 118.209 40.4525 118.182 40.2925C118.162 40.1325 118.129 39.9559 118.082 39.7625C118.036 39.5692 117.976 39.3359 117.902 39.0625C117.836 38.7825 117.756 38.4259 117.662 37.9925C117.622 38.3659 117.539 38.7225 117.412 39.0625C117.292 39.4025 117.182 39.7525 117.082 40.1125C117.142 40.1525 117.192 40.2092 117.232 40.2825C117.279 40.3492 117.302 40.4392 117.302 40.5525C117.302 40.6792 117.269 40.7759 117.202 40.8425C117.136 40.9092 117.062 40.9425 116.982 40.9425C116.876 40.9425 116.786 40.8959 116.712 40.8025C116.766 41.0359 116.859 41.2192 116.992 41.3525C117.126 41.4792 117.302 41.5425 117.522 41.5425C117.736 41.5425 117.906 41.4892 118.032 41.3825C118.159 41.2692 118.222 41.0892 118.222 40.8425ZM121.71 37.1825C121.97 37.1825 122.193 37.2225 122.38 37.3025C122.567 37.3825 122.72 37.4959 122.84 37.6425C122.96 37.7825 123.053 37.9492 123.12 38.1425C123.193 38.3359 123.247 38.5425 123.28 38.7625H123.34C123.62 38.7625 123.877 38.7059 124.11 38.5925C124.343 38.4792 124.543 38.3359 124.71 38.1625L124.86 38.4325C124.727 38.6459 124.513 38.8225 124.22 38.9625C123.933 39.1025 123.637 39.1992 123.33 39.2525C123.33 39.3192 123.33 39.3859 123.33 39.4525C123.337 39.5192 123.34 39.5892 123.34 39.6625C123.34 40.4825 123.19 41.1259 122.89 41.5925C122.59 42.0592 122.17 42.2925 121.63 42.2925C121.41 42.2925 121.187 42.2525 120.96 42.1725C120.74 42.0925 120.54 41.9592 120.36 41.7725C120.18 41.5859 120.033 41.3459 119.92 41.0525C119.813 40.7592 119.76 40.3959 119.76 39.9625C119.76 39.6692 119.79 39.3592 119.85 39.0325C119.917 38.7059 120.023 38.4059 120.17 38.1325C120.323 37.8592 120.523 37.6325 120.77 37.4525C121.023 37.2725 121.337 37.1825 121.71 37.1825ZM121.81 41.5325C122.163 41.5325 122.423 41.3592 122.59 41.0125C122.757 40.6592 122.84 40.1625 122.84 39.5225C122.84 39.4825 122.84 39.4425 122.84 39.4025C122.84 39.3625 122.837 39.3225 122.83 39.2825C122.637 39.2692 122.497 39.2259 122.41 39.1525C122.33 39.0792 122.29 38.9559 122.29 38.7825C122.29 38.6292 122.323 38.5225 122.39 38.4625C122.457 38.3959 122.557 38.3592 122.69 38.3525C122.61 38.1192 122.507 37.9592 122.38 37.8725C122.26 37.7792 122.123 37.7325 121.97 37.7325C121.763 37.7325 121.587 37.8025 121.44 37.9425C121.3 38.0759 121.183 38.2492 121.09 38.4625C121.003 38.6759 120.94 38.9125 120.9 39.1725C120.86 39.4259 120.84 39.6759 120.84 39.9225C120.84 40.2492 120.87 40.5159 120.93 40.7225C120.99 40.9292 121.067 41.0925 121.16 41.2125C121.253 41.3325 121.357 41.4159 121.47 41.4625C121.583 41.5092 121.697 41.5325 121.81 41.5325ZM125.08 37.2325V40.6325C125.08 40.6992 125.083 40.7825 125.09 40.8825C125.096 40.9825 125.113 41.0825 125.14 41.1825C125.173 41.2759 125.22 41.3592 125.28 41.4325C125.34 41.4992 125.423 41.5325 125.53 41.5325C125.856 41.5325 126.096 41.1692 126.25 40.4425H126.62C126.546 40.8625 126.453 41.1959 126.34 41.4425C126.226 41.6825 126.106 41.8659 125.98 41.9925C125.853 42.1192 125.723 42.1992 125.59 42.2325C125.456 42.2725 125.336 42.2925 125.23 42.2925C124.996 42.2925 124.806 42.2492 124.66 42.1625C124.513 42.0692 124.396 41.9525 124.31 41.8125C124.223 41.6725 124.163 41.5159 124.13 41.3425C124.096 41.1692 124.08 41.0025 124.08 40.8425V37.2325H125.08ZM123.9 35.7925C123.9 35.6125 123.963 35.4559 124.09 35.3225C124.216 35.1892 124.373 35.1225 124.56 35.1225C124.74 35.1225 124.896 35.1892 125.03 35.3225C125.163 35.4559 125.23 35.6125 125.23 35.7925C125.23 35.9792 125.163 36.1359 125.03 36.2625C124.896 36.3892 124.74 36.4525 124.56 36.4525C124.373 36.4525 124.216 36.3892 124.09 36.2625C123.963 36.1359 123.9 35.9792 123.9 35.7925ZM127.238 37.2325H128.048V37.5825H127.238V43.0325C127.238 43.3859 127.201 43.6725 127.128 43.8925C127.061 44.1125 126.971 44.2859 126.858 44.4125C126.744 44.5392 126.611 44.6225 126.458 44.6625C126.311 44.7092 126.154 44.7325 125.988 44.7325C125.628 44.7325 125.364 44.6492 125.198 44.4825C125.024 44.3159 124.938 44.0759 124.938 43.7625C124.938 43.5959 124.978 43.4425 125.058 43.3025C125.131 43.1625 125.231 43.0325 125.358 42.9125C125.478 42.7992 125.614 42.6959 125.768 42.6025C125.921 42.5159 126.078 42.4392 126.238 42.3725V36.4725C126.238 35.8925 126.374 35.4592 126.648 35.1725C126.921 34.8792 127.271 34.7325 127.698 34.7325C127.898 34.7325 128.081 34.7625 128.248 34.8225C128.414 34.8825 128.561 34.9759 128.688 35.1025C128.814 35.2292 128.911 35.3859 128.978 35.5725C129.051 35.7592 129.088 35.9792 129.088 36.2325H128.698C128.658 35.9659 128.584 35.7559 128.478 35.6025C128.378 35.4492 128.208 35.3725 127.968 35.3725C127.808 35.3725 127.681 35.4092 127.588 35.4825C127.494 35.5492 127.421 35.6425 127.368 35.7625C127.314 35.8825 127.278 36.0292 127.258 36.2025C127.244 36.3692 127.238 36.5525 127.238 36.7525V37.2325ZM125.788 44.2125C125.981 44.2125 126.104 44.1092 126.158 43.9025C126.211 43.6959 126.238 43.4125 126.238 43.0525V42.7425C125.938 42.8892 125.711 43.0492 125.558 43.2225C125.404 43.3959 125.328 43.5659 125.328 43.7325C125.328 43.8659 125.371 43.9792 125.458 44.0725C125.544 44.1659 125.654 44.2125 125.788 44.2125Z" fill="#151414"/>
<defs>
<clipPath id="clip0_11_4">
<rect width="101.704" height="99" fill="white"/>
</clipPath>
</defs>
</svg>
